<?xml version="1.0" encoding="UTF-8"?>
<svg version="1.1" xmlns="http://www.w3.org/2000/svg" width="512" height="512">
<path d="M0 0 C0.85209004 -0.00835666 1.70418008 -0.01671332 2.58209103 -0.02532321 C5.43640764 -0.04829662 8.2899399 -0.04268705 11.14433289 -0.0370636 C13.19118616 -0.04739544 15.23803165 -0.05938403 17.28486633 -0.07290649 C22.84490831 -0.10398279 28.40469125 -0.10922998 33.96480966 -0.10797477 C38.60692419 -0.10880474 43.24898238 -0.12104415 47.8910796 -0.13292438 C58.84418557 -0.16031128 69.79715695 -0.16562357 80.75028992 -0.15815735 C92.04704471 -0.15091732 103.34317528 -0.184324 114.63979465 -0.23721474 C124.34018732 -0.28099172 134.04037831 -0.29771167 143.74086827 -0.29317886 C149.53382866 -0.29085628 155.32628488 -0.29918452 161.11915016 -0.3342495 C166.56871194 -0.36620297 172.01724044 -0.36439718 177.46681595 -0.33680534 C179.46465366 -0.33234969 181.4625595 -0.3397996 183.46029854 -0.36014938 C200.43914788 -0.52135862 200.43914788 -0.52135862 205.51243591 3.83326721 C207.18466663 5.75244999 207.18466663 5.75244999 208.51811218 7.52812195 C209.27184616 8.23995132 210.02558014 8.9517807 210.80215454 9.68518066 C211.40314468 10.28537521 212.00413483 10.88556976 212.62333679 11.50395203 C213.66867836 12.54456535 213.66867836 12.54456535 214.73513794 13.60620117 C215.45629288 14.32938034 216.17744781 15.05255951 216.92045593 15.7976532 C217.68362625 16.55986679 218.44679657 17.32208038 219.23309326 18.10739136 C220.83006007 19.70368262 222.42578471 21.30121748 224.02030945 22.89994812 C226.46960954 25.35465018 228.92426122 27.8039109 231.37944031 30.25273132 C232.93509998 31.80905102 234.49044985 33.36568047 236.04545593 34.9226532 C236.78078049 35.65595352 237.51610504 36.38925385 238.27371216 37.14477539 C238.94854141 37.82275681 239.62337067 38.50073822 240.31864929 39.19926453 C241.21178078 40.0935894 241.21178078 40.0935894 242.12295532 41.00598145 C244.85737321 43.98927912 244.64179297 46.29522051 244.6383667 50.23542786 C244.6404287 52.05700912 244.6404287 52.05700912 244.64253235 53.91539001 C244.63899299 55.2682345 244.63535817 56.62107873 244.63163757 57.97392273 C244.63135562 59.39291888 244.63151359 60.81191519 244.63208008 62.23091125 C244.63236774 66.09018658 244.6264761 69.94943101 244.61950612 73.80869913 C244.61326734 77.83926647 244.61266837 81.86983446 244.61148071 85.90040588 C244.60836895 93.53602868 244.60015764 101.17163721 244.59013122 108.80725372 C244.57896529 117.49878936 244.57345842 126.19032567 244.56843579 134.88186669 C244.5579749 152.76395988 244.54037845 170.64603977 244.51811218 188.52812195 C245.61663513 188.82903748 246.71515808 189.129953 247.8469696 189.43998718 C257.64657349 192.34461141 265.27674943 199.60107544 272.51811218 206.52812195 C273.21807312 207.15331726 273.91803406 207.77851257 274.63920593 208.4226532 C289.54236517 222.22187471 297.60009896 244.16277077 298.72123718 264.1492157 C298.93102674 281.22958245 295.55018129 297.30946469 287.51811218 312.52812195 C289.4943954 314.7213143 291.49445083 316.87937777 293.51811218 319.02812195 C294.07112 319.64816101 294.62412781 320.26820007 295.19389343 320.9070282 C298.3722885 324.31535858 298.3722885 324.31535858 302.61772156 325.89701843 C304.58817346 325.87000417 306.55538633 325.70452396 308.51811218 325.52812195 C319.83918444 328.96487603 327.87611642 339.79130503 335.95463562 347.9851532 C341.09359589 353.1907621 346.2554202 358.302317 351.81596375 363.06181335 C354.09684802 365.0266715 356.25528844 367.09681799 358.39311218 369.21562195 C359.13303406 369.94136414 359.87295593 370.66710632 360.63529968 371.4148407 C363.93396 375.11727894 364.82315475 377.89463153 364.89311218 382.84062195 C364.92147156 383.74425476 364.94983093 384.64788757 364.97904968 385.5789032 C363.71527488 393.66491995 357.60891369 398.86847072 352.01811218 404.34062195 C351.25885437 405.10310242 350.49959656 405.86558289 349.71733093 406.65116882 C344.67109173 411.64880152 341.43418861 414.81002454 334.08061218 414.84062195 C333.15377625 414.85737976 332.22694031 414.87413757 331.27201843 414.8914032 C319.55845229 413.34620937 307.3784103 396.49710945 299.26811218 388.27812195 C290.44748167 379.31447969 290.44748167 379.31447969 281.09306335 370.9148407 C278.5150688 368.64495865 277.01050764 366.63230449 275.51811218 363.52812195 C275.46816953 361.79955112 275.45070641 360.06990715 275.45561218 358.34062195 C275.18115326 352.94787492 272.96779017 349.99829677 269.26811218 346.27812195 C268.78978943 345.7880365 268.31146667 345.29795105 267.81864929 344.79301453 C265.6162388 342.74059031 264.18646655 341.53791867 261.11967468 341.4929657 C257.65977651 342.86965191 254.41526389 344.57661264 251.14311218 346.34062195 C230.12501596 357.27217495 205.59509608 358.52123657 183.12358093 351.4617157 C171.1234168 347.14848944 159.5948106 340.60482037 150.51811218 331.52812195 C148.47915287 331.42784166 146.43667104 331.39902299 144.39524841 331.39682007 C143.74863699 331.39470435 143.10202557 331.39258864 142.43581986 331.39040881 C140.25327302 331.38438246 138.07078356 331.38541084 135.88822937 331.38627625 C134.32971091 331.38324644 132.77119333 331.37972549 131.212677 331.37574768 C127.84813589 331.36784373 124.48360546 331.36270812 121.1190567 331.35945702 C115.79958838 331.35355936 110.48018741 331.33703036 105.16075134 331.31811523 C103.34133534 331.31177737 101.52191929 331.30545175 99.7025032 331.29913807 C98.79115128 331.29597226 97.87979936 331.29280645 96.94083071 331.2895447 C84.55140142 331.24743296 72.16200278 331.21449567 59.77250671 331.20219421 C51.42296292 331.19381866 43.07358501 331.1713447 34.72412419 331.13283855 C30.30346545 331.11305665 25.88305479 331.10068023 21.46234894 331.10567284 C17.30243993 331.11031337 13.14300096 331.09654679 8.98318672 331.06866074 C7.45659745 331.06173824 5.92995968 331.0616338 4.40337181 331.06886101 C2.31799114 331.07773615 0.23416495 331.06208067 -1.85108948 331.04037476 C-3.01770237 331.0379864 -4.18431526 331.03559805 -5.38628006 331.03313732 C-9.48970612 330.36370715 -10.91181574 329.86625726 -13.48188782 326.52812195 C-14.24258785 322.30942538 -14.15531732 318.12597926 -14.11680603 313.84965515 C-14.12460598 312.53415586 -14.13240594 311.21865656 -14.14044225 309.86329365 C-14.16135599 306.20853063 -14.15098049 302.55441862 -14.13551116 298.89965296 C-14.12421982 294.95955096 -14.14164928 291.01956261 -14.15541077 287.07948303 C-14.17767155 279.35958554 -14.17282943 271.63993078 -14.15834756 263.92002368 C-14.14706645 257.6472491 -14.14551952 251.37454267 -14.15096664 245.10176086 C-14.15173281 244.2097914 -14.15249897 243.31782193 -14.15328836 242.39882308 C-14.15488695 240.58693812 -14.15650801 238.77505318 -14.15815131 236.96316826 C-14.17241713 219.9636491 -14.15600306 202.96426465 -14.12914948 185.96476758 C-14.10680994 171.37090937 -14.11068983 156.77725 -14.13374329 142.18339539 C-14.16048662 125.24569898 -14.17104376 108.30812071 -14.15568197 91.37040615 C-14.15408918 89.56509846 -14.15251733 87.75979076 -14.15096664 85.95448303 C-14.15019527 85.06618233 -14.14942389 84.17788162 -14.14862914 83.26266271 C-14.14430772 76.99570245 -14.15160817 70.72881697 -14.16336441 64.46186829 C-14.17737168 56.82695061 -14.173627 49.19229003 -14.14696069 41.5574019 C-14.13379839 37.66012178 -14.12871065 33.76327067 -14.14520645 29.8659935 C-14.16279913 25.64581662 -14.14182838 21.4267277 -14.11680603 17.20658875 C-14.12795964 15.96808324 -14.13911325 14.72957773 -14.15060484 13.45354176 C-14.05648373 5.3171178 -14.05648373 5.3171178 -11.47232342 1.7687254 C-7.60191258 0.16305797 -4.12381014 -0.03575133 0 0 Z M3.51811218 17.52812195 C3.51811218 115.20812195 3.51811218 212.88812195 3.51811218 313.52812195 C47.40811218 313.52812195 91.29811218 313.52812195 136.51811218 313.52812195 C134.20811218 307.91812195 131.89811218 302.30812195 129.51811218 296.52812195 C122.43079684 273.13998131 124.00497715 249.36412931 135.08061218 227.43437195 C147.2823382 205.5164567 166.16768818 191.33314063 190.14701843 184.4929657 C202.90224084 181.63334858 213.90385529 182.52812195 227.51811218 182.52812195 C227.51811218 140.94812195 227.51811218 99.36812195 227.51811218 56.52812195 C216.29811218 56.19812195 205.07811218 55.86812195 193.51811218 55.52812195 C192.52811218 55.19812195 191.53811218 54.86812195 190.51811218 54.52812195 C187.52247265 42.54556382 188.89222343 29.87379311 188.51811218 17.52812195 C127.46811218 17.52812195 66.41811218 17.52812195 3.51811218 17.52812195 Z M205.51811218 29.52812195 C205.51811218 32.82812195 205.51811218 36.12812195 205.51811218 39.52812195 C208.81811218 39.52812195 212.11811218 39.52812195 215.51811218 39.52812195 C214.61061218 38.43499695 213.70311218 37.34187195 212.76811218 36.21562195 C212.25764343 35.60073914 211.74717468 34.98585632 211.22123718 34.3523407 C209.28217777 32.16856378 209.28217777 32.16856378 205.51811218 29.52812195 Z M159.02592468 221.63749695 C145.8101146 236.87067368 140.12854759 255.33364154 141.31547546 275.27909851 C142.831001 292.09960599 150.49489781 306.81692871 162.51811218 318.52812195 C163.18069031 319.22292664 163.84326843 319.91773132 164.52592468 320.6335907 C176.64581318 332.54610467 194.70401125 338.76328446 211.51811218 339.02812195 C232.16295788 338.40190843 249.9876073 329.73814392 264.20561218 314.77812195 C276.80031198 300.16205058 282.74305735 281.77089696 281.51811218 262.52812195 C279.03716137 244.08703877 271.23849192 226.4761635 256.51811218 214.52812195 C225.6054249 191.91748063 186.16063479 193.34318385 159.02592468 221.63749695 Z M275.51811218 326.52812195 C276.03587839 330.63259587 278.16438662 332.48511718 281.08061218 335.27812195 C281.90690125 336.0773407 282.73319031 336.87655945 283.58451843 337.69999695 C284.54164734 338.60491882 284.54164734 338.60491882 285.51811218 339.52812195 C286.17811218 339.19812195 286.83811218 338.86812195 287.51811218 338.52812195 C286.12993868 335.39955181 284.5070934 333.24623021 282.08061218 330.84062195 C281.48377625 330.23862976 280.88694031 329.63663757 280.27201843 329.0164032 C278.47995005 327.30835315 278.47995005 327.30835315 275.51811218 326.52812195 Z M305.51811218 343.52812195 C304.03170913 345.10631483 302.57910012 346.716422 301.14311218 348.34062195 C296.17236325 353.95092978 296.17236325 353.95092978 293.51811218 356.52812195 C294.90440462 359.65136739 296.51322789 361.77002901 298.93217468 364.1726532 C299.61151062 364.85005554 300.29084656 365.52745789 300.99076843 366.22538757 C301.70104187 366.92341492 302.41131531 367.62144226 303.14311218 368.34062195 C303.8301825 369.02704773 304.51725281 369.71347351 305.22514343 370.42070007 C309.22052796 374.38235246 313.33155237 378.14470236 317.58988953 381.82035828 C320.69694662 384.57217701 323.60649335 387.50988768 326.51811218 390.46562195 C327.39403015 391.3483075 327.39403015 391.3483075 328.28764343 392.24882507 C329.70016023 393.67291988 331.10949028 395.10017444 332.51811218 396.52812195 C336.42096985 394.94144617 338.853322 392.39461713 341.76811218 389.40312195 C342.66014343 388.49304382 343.55217468 387.5829657 344.47123718 386.64530945 C345.14670593 385.94663757 345.82217468 385.2479657 346.51811218 384.52812195 C344.93627016 380.68977949 342.49522229 378.26145347 339.57279968 375.3523407 C339.08409393 374.86409317 338.59538818 374.37584564 338.09187317 373.87280273 C337.05695552 372.84089997 336.01961467 371.81142251 334.98002625 370.78422546 C333.41410549 369.23637303 331.8561486 367.68085844 330.29936218 366.12382507 C325.38232151 361.22476692 320.40711866 356.44145219 315.13139343 351.92533875 C313.18272763 350.23765497 311.36901332 348.44635112 309.58061218 346.59062195 C308.57820932 345.55168504 307.56288461 344.52444116 306.51811218 343.52812195 C306.18811218 343.52812195 305.85811218 343.52812195 305.51811218 343.52812195 Z " fill="#000000" transform="translate(140.4818878173828,90.47187805175781)"/>
<path d="M0 0 C3.47116741 2.55004756 4.78991479 4.20204477 5.890625 8.3828125 C6.00921875 9.61773437 6.1278125 10.85265625 6.25 12.125 C6.31880371 12.78516113 6.38760742 13.44532227 6.45849609 14.12548828 C6.65806249 16.08180778 6.82947414 18.04093552 7 20 C7.11085937 21.02609375 7.22171875 22.0521875 7.3359375 23.109375 C7.61073782 25.73854563 7.81870107 28.36292467 8 31 C8.07734375 31.825 8.1546875 32.65 8.234375 33.5 C8.48375378 37.71173047 8.36080621 39.46425745 5.9375 43.0625 C2.28047721 45.47457886 0.3069986 45.54816346 -4 45 C-5.35231679 44.37273489 -6.69098229 43.71322847 -8 43 C-8.17305664 43.89029907 -8.17305664 43.89029907 -8.34960938 44.79858398 C-9.24578543 49.35075097 -10.18580365 53.88692997 -11.21875 58.41015625 C-11.42886719 59.33892578 -11.63898437 60.26769531 -11.85546875 61.22460938 C-12.27925278 63.09054331 -12.70877804 64.95518427 -13.14453125 66.81835938 C-16.52794786 81.91919119 -17.4116895 96.94928891 -17.375 112.375 C-17.37445618 113.24373749 -17.37391235 114.11247498 -17.37335205 115.00753784 C-17.2283829 165.70324907 -0.50119319 215.13565817 31 255 C31.71800781 255.91136719 32.43601562 256.82273437 33.17578125 257.76171875 C72.00809969 306.11243852 127.76366913 336.14446775 189.28076172 343.53271484 C193.7529222 344.01747063 198.18371954 344.19244321 202.6796875 344.23828125 C203.48187714 344.24802979 204.28406677 344.25777832 205.11056519 344.26782227 C224.10571629 344.45090585 242.32937951 343.90151367 261 340 C261.90540527 339.81276367 262.81081055 339.62552734 263.74365234 339.43261719 C279.00758323 336.16721317 294.17046328 331.47322508 308.1875 324.5625 C313.53263318 322.00672938 317.10996771 320.97158166 323 322 C326.06862356 324.54471222 326.84823663 326.08941981 327.5 330 C326.85023131 333.89861214 325.79244592 335.17771115 323 338 C319.97136614 339.75028005 316.80028733 341.06094479 313.5625 342.375 C312.63236084 342.76075195 311.70222168 343.14650391 310.74389648 343.54394531 C293.91068622 350.40816541 276.85647875 355.58210822 259 359 C257.7634668 359.2477417 257.7634668 359.2477417 256.50195312 359.50048828 C229.00164127 364.78943052 196.41732289 364.68933536 169 359 C167.50944092 358.69400879 167.50944092 358.69400879 165.98876953 358.38183594 C108.21067499 346.16279609 52.70020347 315.01061846 17 267 C16.52965332 266.38431152 16.05930664 265.76862305 15.57470703 265.13427734 C-14.60537154 225.55400022 -34.93925486 175.44259137 -35.203125 125.20703125 C-35.21018463 124.30658081 -35.21724426 123.40613037 -35.22451782 122.47839355 C-35.41388928 91.23580377 -32.29385789 62.97845915 -23 33 C-24.0725 33.0825 -25.145 33.165 -26.25 33.25 C-30 33 -30 33 -32.375 31.375 C-34.38506043 28.43721938 -34.92733979 26.5603504 -35 23 C-32.79453022 18.09262627 -29.27130317 15.62730437 -25 12.625 C-24.33299072 12.14893311 -23.66598145 11.67286621 -22.97875977 11.18237305 C-20.99427119 9.77575232 -18.99874953 8.38625413 -17 7 C-15.93652344 6.25105469 -14.87304688 5.50210938 -13.77734375 4.73046875 C-5.459246 -0.88739369 -5.459246 -0.88739369 0 0 Z " fill="#000000" transform="translate(42,143)"/>
<path d="M0 0 C1.49055908 0.30599121 1.49055908 0.30599121 3.01123047 0.61816406 C60.78932501 12.83720391 116.29979653 43.98938154 152 92 C152.47034668 92.61568848 152.94069336 93.23137695 153.42529297 93.86572266 C183.60537154 133.44599978 203.93925486 183.55740863 204.203125 233.79296875 C204.21018463 234.69341919 204.21724426 235.59386963 204.22451782 236.52160645 C204.41388928 267.76419623 201.29385789 296.02154085 192 326 C193.0725 325.9175 194.145 325.835 195.25 325.75 C199 326 199 326 201.375 327.625 C203.38506043 330.56278062 203.92733979 332.4396496 204 336 C201.71051151 341.48914248 197.02226384 344.2180142 192.3125 347.5 C191.53455078 348.05558594 190.75660156 348.61117188 189.95507812 349.18359375 C176.53186259 358.69963479 176.53186259 358.69963479 171.8125 359.625 C167.91303814 358.75845292 166.54138463 357.04139689 164 354 C163.109375 350.8359375 163.109375 350.8359375 162.75 347.375 C162.61335938 346.14007813 162.47671875 344.90515625 162.3359375 343.6328125 C162.22507812 342.43398438 162.11421875 341.23515625 162 340 C161.88914062 339.00742187 161.77828125 338.01484375 161.6640625 336.9921875 C161.38332298 334.3289558 161.17652793 331.67199098 161 329 C160.92265625 328.10023438 160.8453125 327.20046875 160.765625 326.2734375 C160.52904876 321.8179184 160.5487042 319.68378152 163.0625 315.875 C166.71923163 313.54091598 168.7314663 313.45673207 173 314 C174.35231679 314.62726511 175.69098229 315.28677153 177 316 C177.11537109 315.41299316 177.23074219 314.82598633 177.34960938 314.22119141 C178.26813743 309.58407696 179.21710749 304.95585508 180.21875 300.3359375 C180.42886719 299.35753906 180.63898438 298.37914062 180.85546875 297.37109375 C181.28033856 295.39609287 181.70991823 293.42209847 182.14453125 291.44921875 C185.32865368 276.50533129 186.41104569 261.91971883 186.375 246.6875 C186.37445618 245.81626495 186.37391235 244.94502991 186.37335205 244.0473938 C186.22864688 193.3282316 169.51784147 143.88541 138 104 C137.28199219 103.08863281 136.56398438 102.17726563 135.82421875 101.23828125 C96.95239737 52.83837576 41.31388343 22.92438132 -20.25390625 15.46508789 C-24.87912046 14.96369515 -29.45981865 14.82298402 -34.109375 14.796875 C-34.94998474 14.78981537 -35.79059448 14.78275574 -36.65667725 14.77548218 C-61.98446307 14.50763823 -61.98446307 14.50763823 -87 18 C-87.97211426 18.20399414 -88.94422852 18.40798828 -89.94580078 18.61816406 C-106.9034697 22.22774378 -123.58265544 26.77037984 -139.1875 34.4375 C-144.53263318 36.99327062 -148.10996771 38.02841834 -154 37 C-157.06862356 34.45528778 -157.84823663 32.91058019 -158.5 29 C-157.85023131 25.10138786 -156.79244592 23.82228885 -154 21 C-150.97136614 19.24971995 -147.80028733 17.93905521 -144.5625 16.625 C-143.63236084 16.23924805 -142.70222168 15.85349609 -141.74389648 15.45605469 C-124.91068622 8.59183459 -107.85647875 3.41789178 -90 0 C-89.17564453 -0.16516113 -88.35128906 -0.33032227 -87.50195312 -0.50048828 C-60.00164127 -5.78943052 -27.41732289 -5.68933536 0 0 Z " fill="#000000" transform="translate(301,10)"/>
<path d="M0 0 C12.51588657 9.43446769 21.65109726 23.31723617 24.9453125 38.73828125 C27.54720316 59.25140139 23.99686111 77.18032441 11.2578125 93.8125 C1.29449445 105.49190794 -12.34909093 113.84288125 -27.6171875 116.1875 C-31.22670036 116.47123353 -34.81010365 116.52202842 -38.4296875 116.5 C-39.40019043 116.49436035 -40.37069336 116.4887207 -41.37060547 116.48291016 C-59.00476813 116.18452677 -73.27652386 109.39890535 -85.8046875 97.02734375 C-97.79187945 84.15473421 -103.35104828 69.05631045 -103.6875 51.5234375 C-102.99932536 32.29502851 -95.50292251 16.52601392 -81.6171875 3.1875 C-75.24996579 -2.10647851 -68.31521416 -5.8230814 -60.6171875 -8.8125 C-59.82441406 -9.13347656 -59.03164063 -9.45445312 -58.21484375 -9.78515625 C-38.74312327 -16.39877379 -16.45183889 -11.3935123 0 0 Z M-56.6171875 8.1875 C-57.2875 8.44273437 -57.9578125 8.69796875 -58.6484375 8.9609375 C-69.49908265 13.65427211 -77.79858674 23.44831805 -82.93359375 33.85546875 C-87.46348441 45.29857232 -87.38450696 59.15058879 -82.875 70.58203125 C-76.67197684 83.43115065 -66.57932532 93.08937349 -53.1171875 98.0625 C-41.87959309 101.0272366 -28.97755825 100.51616203 -18.6171875 95.1875 C-17.74578125 94.74019531 -16.874375 94.29289062 -15.9765625 93.83203125 C-4.47372961 87.40904223 2.45104489 78.35912447 6.7578125 65.9375 C10.33932576 53.11628445 8.84323208 41.09650781 2.91015625 29.24609375 C-4.19993495 17.16061958 -13.84847303 10.42852209 -26.9609375 6.078125 C-36.68140924 3.71031778 -47.38162574 4.33934927 -56.6171875 8.1875 Z " fill="#000000" transform="translate(390.6171875,306.8125)"/>
<path d="M0 0 C1.26177063 -0.01409912 2.52354126 -0.02819824 3.82354736 -0.04272461 C5.214237 -0.03300394 6.60492309 -0.02276315 7.99560547 -0.01205444 C9.46605512 -0.01883261 10.93649628 -0.02773687 12.40692139 -0.03860474 C16.39464923 -0.06138162 20.38172965 -0.05256883 24.36946869 -0.03670931 C28.54450717 -0.02404178 32.71949057 -0.03579278 36.89453125 -0.04364014 C43.90553734 -0.05273425 50.91628 -0.04075518 57.92724609 -0.01693726 C66.0305168 0.01027375 74.13315849 0.0014594 82.23641396 -0.02606928 C89.19625034 -0.04876628 96.15589746 -0.05195761 103.1157589 -0.03887594 C107.27147099 -0.0310846 111.42688751 -0.03003089 115.58258057 -0.04655838 C119.48985456 -0.0610127 123.39631839 -0.050965 127.30350494 -0.0220871 C128.7365713 -0.01548125 130.16970596 -0.01736555 131.60274506 -0.02840042 C133.56033375 -0.04208361 135.51807162 -0.02187341 137.47558594 0 C139.11815872 0.00282769 139.11815872 0.00282769 140.79391479 0.00571251 C144.73510508 0.84807733 146.24932727 2.53073848 148.73779297 5.63491821 C149.36279297 9.13491821 149.36279297 9.13491821 148.73779297 12.63491821 C146.24932727 15.73909795 144.73510508 17.4217591 140.79391479 18.26412392 C139.69886627 18.26600904 138.60381775 18.26789417 137.47558594 18.26983643 C136.21381531 18.28393555 134.95204468 18.29803467 133.65203857 18.31256104 C132.26134893 18.30284037 130.87066285 18.29259958 129.47998047 18.28189087 C128.00953082 18.28866904 126.53908966 18.29757329 125.06866455 18.30844116 C121.0809367 18.33121805 117.09385628 18.32240526 113.10611725 18.30654573 C108.93107877 18.29387821 104.75609536 18.30562921 100.58105469 18.31347656 C93.57004859 18.32257067 86.55930593 18.3105916 79.54833984 18.28677368 C71.44506914 18.25956268 63.34242745 18.26837702 55.23917198 18.29590571 C48.2793356 18.3186027 41.31968848 18.32179403 34.35982704 18.30871236 C30.20411495 18.30092102 26.04869842 18.29986732 21.89300537 18.31639481 C17.98573138 18.33084912 14.07926755 18.32080142 10.17208099 18.29192352 C8.73901464 18.28531768 7.30587998 18.28720198 5.87284088 18.29823685 C3.91525219 18.31192004 1.95751431 18.29170984 0 18.26983643 C-1.64257278 18.26700873 -1.64257278 18.26700873 -3.31832886 18.26412392 C-7.25951914 17.4217591 -8.77374134 15.73909795 -11.26220703 12.63491821 C-11.88720703 9.13491821 -11.88720703 9.13491821 -11.26220703 5.63491821 C-7.75202356 1.25621996 -5.58338222 0.0096118 0 0 Z " fill="#000000" transform="translate(187.26220703125,229.36508178710938)"/>
<path d="M0 0 C1.26177063 -0.01409912 2.52354126 -0.02819824 3.82354736 -0.04272461 C5.214237 -0.03300394 6.60492309 -0.02276315 7.99560547 -0.01205444 C9.46605512 -0.01883261 10.93649628 -0.02773687 12.40692139 -0.03860474 C16.39464923 -0.06138162 20.38172965 -0.05256883 24.36946869 -0.03670931 C28.54450717 -0.02404178 32.71949057 -0.03579278 36.89453125 -0.04364014 C43.90553734 -0.05273425 50.91628 -0.04075518 57.92724609 -0.01693726 C66.0305168 0.01027375 74.13315849 0.0014594 82.23641396 -0.02606928 C89.19625034 -0.04876628 96.15589746 -0.05195761 103.1157589 -0.03887594 C107.27147099 -0.0310846 111.42688751 -0.03003089 115.58258057 -0.04655838 C119.48985456 -0.0610127 123.39631839 -0.050965 127.30350494 -0.0220871 C128.7365713 -0.01548125 130.16970596 -0.01736555 131.60274506 -0.02840042 C133.56033375 -0.04208361 135.51807162 -0.02187341 137.47558594 0 C139.11815872 0.00282769 139.11815872 0.00282769 140.79391479 0.00571251 C144.73693081 0.84846755 146.25283118 2.5249331 148.73779297 5.63491821 C149.30029297 9.19741821 149.30029297 9.19741821 148.73779297 12.63491821 C146.87070792 14.99989261 145.41717866 16.29522537 142.73779297 17.63491821 C140.79567714 17.73303064 138.85013826 17.76562569 136.9055481 17.76863098 C135.66328461 17.77289597 134.42102112 17.77716095 133.14111328 17.78155518 C131.75683591 17.78120563 130.37255856 17.78074408 128.98828125 17.78018188 C127.5363659 17.78317271 126.08445134 17.78657506 124.63253784 17.7903595 C120.68209623 17.79921199 116.73167626 17.80153815 112.78122568 17.80217528 C109.48595477 17.80312355 106.19068892 17.80680094 102.89541996 17.81034738 C95.12168362 17.81849687 87.34795887 17.82093118 79.57421875 17.82022095 C71.55013459 17.81962018 63.52611766 17.83017067 55.50205052 17.84596461 C48.617925 17.85903289 41.73382147 17.86440514 34.84968364 17.86376554 C30.73595817 17.86351032 26.6222924 17.86637463 22.50857925 17.87694359 C18.63936541 17.88661247 14.77026849 17.8867121 10.90105057 17.87942696 C9.48045176 17.87837957 8.05984572 17.88075314 6.63925934 17.88678741 C4.70085595 17.89448823 2.76241286 17.8886718 0.82400513 17.88215637 C-0.803672 17.88297352 -0.803672 17.88297352 -2.46423149 17.88380718 C-5.30842356 17.6308071 -6.90620468 17.21770416 -9.26220703 15.63491821 C-11.76252358 11.8844434 -11.79824257 10.07635555 -11.26220703 5.63491821 C-7.77099388 1.243221 -5.57570229 0.00959858 0 0 Z " fill="#000000" transform="translate(187.26220703125,187.36508178710938)"/>
<path d="M0 0 C0.92949463 -0.0071553 1.85898926 -0.01431061 2.81665039 -0.02168274 C3.83953659 -0.02437164 4.86242279 -0.02706055 5.91630554 -0.02983093 C6.99121246 -0.03640213 8.06611938 -0.04297333 9.17359924 -0.04974365 C12.74237634 -0.06950744 16.31111131 -0.0811456 19.87992859 -0.09111023 C21.70473786 -0.09722352 21.70473786 -0.09722352 23.56641197 -0.10346031 C30.00416775 -0.12433333 36.44190213 -0.13863022 42.87968445 -0.147995 C49.53805358 -0.15805944 56.19604297 -0.19347324 62.85430622 -0.23316669 C67.96635572 -0.25927753 73.07832508 -0.26768189 78.19043541 -0.27127647 C80.64527325 -0.27615605 83.1001072 -0.28780875 85.55488014 -0.30631447 C88.98812626 -0.33058938 92.42050039 -0.32976188 95.85380554 -0.32279968 C96.87061905 -0.33560974 97.88743256 -0.3484198 98.93505859 -0.36161804 C103.28225909 -0.32943505 105.87672998 -0.26154343 109.69088745 1.95779419 C112.29441529 4.97650129 112.50879874 7.20764945 112.57914734 11.14717102 C111.47706725 14.54525128 110.65816858 15.09449019 107.57914734 17.14717102 C105.45920753 17.40723324 105.45920753 17.40723324 102.96211243 17.42132568 C102.01441483 17.43130081 101.06671722 17.44127594 100.09030151 17.45155334 C99.05230911 17.45221802 98.01431671 17.45288269 96.94487 17.4535675 C95.30302986 17.46605278 95.30302986 17.46605278 93.62802124 17.47879028 C89.99971489 17.50294038 86.37158811 17.51166843 82.74320984 17.51826477 C80.22598719 17.52722697 77.7087651 17.53634873 75.19154358 17.54562378 C69.91058106 17.56212974 64.62966253 17.56985003 59.34867859 17.57270813 C53.24834464 17.57634312 47.14851391 17.60623513 41.04833376 17.64811271 C35.17662338 17.68700636 29.30511248 17.69830104 23.43328476 17.69943428 C20.93657578 17.70364616 18.43986674 17.7161189 15.94324112 17.73695183 C12.45245111 17.76376214 8.96305362 17.75907049 5.47221375 17.74653625 C4.43826981 17.76137054 3.40432587 17.77620483 2.33905029 17.79148865 C-2.38028477 17.74315539 -4.6785599 17.69340363 -8.56651306 14.83236694 C-10.99976175 11.30887564 -11.10774264 9.344832 -10.42085266 5.14717102 C-7.27936576 1.16795428 -4.95042752 0.02611106 0 0 Z " fill="#000000" transform="translate(186.4208526611328,271.8528289794922)"/>
<path d="M0 0 C1.06719772 -0.0071553 2.13439545 -0.01431061 3.2339325 -0.02168274 C6.75917447 -0.03858248 10.28314722 -0.0191595 13.80834961 0.00219727 C16.25784918 0.00136876 18.70734869 -0.00108995 21.15684509 -0.00511169 C26.28897853 -0.00797051 31.42067575 0.00674169 36.55273438 0.03417969 C43.13609405 0.06827981 49.71867448 0.06223865 56.30207157 0.04351711 C61.35923272 0.03295727 66.41621202 0.04187555 71.47335625 0.05690193 C73.90108132 0.06209041 76.32882532 0.06159392 78.75654793 0.05535698 C82.14670907 0.04991659 85.53574792 0.07024324 88.92578125 0.09765625 C90.43529861 0.08786743 90.43529861 0.08786743 91.97531128 0.07788086 C98.75280941 0.17123137 98.75280941 0.17123137 101.99412537 2.48085022 C103.83900992 5.30618996 104.32928718 7.25470074 104.39819336 10.63110352 C102.74419537 14.46141464 101.21889925 16.0875565 97.39819336 17.63110352 C95.24890995 17.88837242 95.24890995 17.88837242 92.88868713 17.89852905 C91.54080612 17.91132401 91.54080612 17.91132401 90.16569519 17.92437744 C88.69825615 17.92301788 88.69825615 17.92301788 87.20117188 17.92163086 C86.16498718 17.92834808 85.12880249 17.93506531 84.06121826 17.94198608 C80.63313005 17.96099696 77.20523726 17.9648917 73.77709961 17.96704102 C71.39582742 17.97346618 69.01455603 17.98019433 66.63328552 17.98721313 C61.64075896 17.99919321 56.64830164 18.00289314 51.65576172 18.00170898 C45.25525987 18.00150562 38.85520117 18.02882316 32.45480442 18.0632534 C27.53661556 18.08547763 22.61853416 18.08954791 17.70030022 18.08848953 C15.3403667 18.09085165 12.9804305 18.09970934 10.62054634 18.11515427 C7.32158364 18.13472544 4.02358727 18.12901076 0.72460938 18.11694336 C-0.25165909 18.12818237 -1.22792755 18.13942139 -2.23377991 18.15100098 C-6.55297948 18.1108042 -8.94316959 18.03816945 -12.68470764 15.72573853 C-14.96582975 13.23336946 -15.52966794 12.17214374 -15.97680664 8.81860352 C-15.60180664 5.63110352 -15.60180664 5.63110352 -13.74098206 2.97132874 C-9.22112995 -0.39817774 -5.50232716 -0.06405754 0 0 Z " fill="#000000" transform="translate(191.601806640625,145.368896484375)"/>
<path d="M0 0 C0.73382401 -0.00511093 1.46764801 -0.01022186 2.22370911 -0.01548767 C4.64539789 -0.02936853 7.06680159 -0.02842808 9.48852539 -0.02612305 C11.17477016 -0.03001078 12.86101395 -0.03434561 14.54725647 -0.03910828 C18.08036474 -0.04656722 21.61337308 -0.04628156 25.14648438 -0.04101562 C29.67040357 -0.03522107 34.19391335 -0.05215305 38.71776485 -0.0753603 C42.19993983 -0.09010379 45.68201634 -0.09096851 49.164217 -0.08785057 C50.83195367 -0.08836346 52.4996959 -0.09359522 54.16740227 -0.10366249 C56.50119382 -0.1160219 58.8341896 -0.1092388 61.16796875 -0.09765625 C62.1975621 -0.10912186 62.1975621 -0.10912186 63.24795532 -0.12081909 C67.53802092 -0.07384228 70.25255359 0.62403895 73.64868164 3.2746582 C75.30684962 6.59099416 75.88629383 8.34581055 74.96118164 11.9621582 C73.60657236 14.34885074 72.85781742 15.65753267 70.64868164 17.2746582 C68.06535129 17.58097465 65.72061499 17.70510125 63.13549805 17.69458008 C62.37255936 17.70304962 61.60962067 17.71151917 60.82356262 17.72024536 C58.29895398 17.74366318 55.77495323 17.74463631 53.25024414 17.7434082 C51.49530798 17.75050772 49.74037414 17.75820641 47.98544312 17.76647949 C44.30508984 17.77993585 40.62495109 17.78148829 36.94458008 17.77563477 C32.23093143 17.76974232 27.5183141 17.8003053 22.80486488 17.84075165 C19.17939724 17.86661977 15.55417804 17.8695068 11.92863083 17.86585999 C10.1910989 17.86755257 8.45355566 17.87720847 6.71611404 17.89500427 C4.28359584 17.91717412 1.85316617 17.90750384 -0.5793457 17.88989258 C-1.29536453 17.90315582 -2.01138336 17.91641907 -2.74909973 17.93008423 C-6.61065895 17.8652164 -8.24629413 17.35797902 -11.3097229 14.9276123 C-13.35131836 12.2746582 -13.35131836 12.2746582 -13.78881836 9.2121582 C-13.36389349 6.35909122 -13.02044005 4.61142857 -11.35131836 2.2746582 C-7.77479333 -0.13863056 -4.16379456 -0.01498425 0 0 Z " fill="#000000" transform="translate(189.351318359375,313.725341796875)"/>
<path d="M0 0 C1.30177689 -0.00960754 2.60355377 -0.01921509 3.94477844 -0.02911377 C5.3683759 -0.03396215 6.7919754 -0.03824088 8.21557617 -0.04199219 C9.67665101 -0.04774641 11.13772584 -0.05350411 12.59880066 -0.05926514 C15.66287589 -0.06976794 18.72692493 -0.07561512 21.79101562 -0.07910156 C25.70839593 -0.08458084 29.62542771 -0.10859945 33.54269886 -0.13707352 C36.56167089 -0.1557416 39.58055972 -0.16090773 42.59958458 -0.16243744 C44.04321889 -0.16545576 45.48685203 -0.17345654 46.93042946 -0.18662262 C48.95485121 -0.20376635 50.97941722 -0.19994607 53.00390625 -0.1953125 C54.15401688 -0.19895813 55.3041275 -0.20260376 56.48908997 -0.20635986 C60.14602908 0.21269758 62.56053437 1.26064355 65.69604492 3.16113281 C67.26075725 6.29055746 67.3930645 9.77195505 66.69604492 13.16113281 C64.43640756 16.14161758 63.24708423 17.07216029 59.50854492 17.67579651 C58.25041992 17.68199509 56.99229492 17.68819366 55.69604492 17.69458008 C54.99962891 17.70319565 54.30321289 17.71181122 53.58569336 17.72068787 C51.28876344 17.74334995 48.99305327 17.73660992 46.69604492 17.72753906 C45.0970829 17.73277433 43.49812398 17.73905046 41.89916992 17.74632263 C38.55006362 17.756727 35.20138221 17.7521648 31.85229492 17.73754883 C27.56110902 17.72035397 23.2712612 17.74386314 18.98022461 17.77903843 C15.67902765 17.80100144 12.37815149 17.79957388 9.0769043 17.79127312 C7.49485811 17.79045311 5.91278848 17.79732613 4.33081055 17.81204414 C2.11838563 17.82947324 -0.09162713 17.81496682 -2.30395508 17.79223633 C-3.56208008 17.79127457 -4.82020508 17.79031281 -6.11645508 17.7893219 C-9.30395508 17.16113281 -9.30395508 17.16113281 -11.71020508 14.80918884 C-13.6732583 11.54752615 -13.92853143 9.90859094 -13.30395508 6.16113281 C-9.61092404 0.43056741 -6.53119319 0.03885517 0 0 Z " fill="#000000" transform="translate(189.303955078125,355.8388671875)"/>
</svg>
